<svg xmlns="http://www.w3.org/2000/svg" viewBox="0 0 512 512" width="512" height="512">
  <!-- Maskable: full bleed background, icon in safe zone (center 80%) -->
  <rect width="512" height="512" fill="#C1694F"/>
  <g transform="translate(256,272)" fill="none" stroke="white" stroke-width="14" stroke-linecap="round" stroke-linejoin="round">
    <line x1="0" y1="72" x2="0" y2="-16"/>
    <path d="M0,-16 C-60,-16 -80,-80 -40,-112 C-8,-88 0,-40 0,-16Z" fill="white" stroke="none"/>
    <path d="M0,-40 C40,-40 72,-96 44,-124 C16,-100 0,-64 0,-40Z" fill="white" stroke="none"/>
    <path d="M0,-16 C-28,-36 -44,-68 -40,-112" fill="none" stroke="#C1694F" stroke-width="6"/>
    <path d="M0,-40 C20,-60 32,-88 44,-124" fill="none" stroke="#C1694F" stroke-width="6"/>
    <path d="M-60,72 C-30,60 30,60 60,72" stroke="white" stroke-width="10" fill="none"/>
  </g>
</svg>
